<svg width="1200" height="800" viewBox="0 0 1200 800" xmlns="http://www.w3.org/2000/svg">
  <defs>
    <linearGradient id="sky" x1="0%" y1="0%" x2="0%" y2="100%">
      <stop offset="0%" stop-color="#fdeedc" />
      <stop offset="100%" stop-color="#f6f7fb" />
    </linearGradient>
  </defs>
  <rect width="1200" height="800" fill="url(#sky)" />
  <g fill="#8fbf9f" opacity="0.8">
    <path d="M0 520 C180 460 320 520 460 480 C620 430 760 520 920 480 C1040 450 1160 480 1200 460 V800 H0 Z" />
  </g>
  <g fill="#5f8f72" opacity="0.9">
    <path d="M0 600 C200 520 340 620 520 560 C700 500 860 600 1040 540 C1120 510 1200 540 1200 540 V800 H0 Z" />
  </g>
  <rect x="200" y="520" width="760" height="90" rx="12" fill="#b34040" />
  <rect x="220" y="500" width="200" height="70" rx="8" fill="#d95f5f" />
  <rect x="440" y="500" width="200" height="70" rx="8" fill="#d95f5f" />
  <rect x="660" y="500" width="200" height="70" rx="8" fill="#d95f5f" />
  <rect x="880" y="500" width="160" height="70" rx="8" fill="#3f3d56" />
  <rect x="220" y="520" width="760" height="18" fill="#2f2d3a" />
  <circle cx="300" cy="620" r="38" fill="#2f2d3a" />
  <circle cx="540" cy="620" r="38" fill="#2f2d3a" />
  <circle cx="780" cy="620" r="38" fill="#2f2d3a" />
  <circle cx="1000" cy="620" r="38" fill="#2f2d3a" />
</svg>
