<svg width="1200" height="800" viewBox="0 0 1200 800" xmlns="http://www.w3.org/2000/svg">
  <defs>
    <linearGradient id="sunset" x1="0%" y1="0%" x2="0%" y2="100%">
      <stop offset="0%" stop-color="#fde2c3" />
      <stop offset="100%" stop-color="#cbe3ff" />
    </linearGradient>
  </defs>
  <rect width="1200" height="800" fill="url(#sunset)" />
  <circle cx="840" cy="200" r="140" fill="#ffd29d" opacity="0.6" />
  <rect x="0" y="520" width="1200" height="280" fill="#2d3d56" />
  <path d="M0 520 C180 470 260 560 420 540 C600 520 680 600 860 560 C1020 520 1120 580 1200 560 V800 H0 Z" fill="#3c4f6d" />
  <g fill="#f6c59f">
    <rect x="160" y="440" width="80" height="160" />
    <rect x="260" y="420" width="60" height="180" />
    <rect x="360" y="430" width="70" height="170" />
    <rect x="460" y="410" width="60" height="190" />
  </g>
  <rect x="560" y="450" width="320" height="160" fill="#f7d6a3" />
  <rect x="560" y="450" width="320" height="40" fill="#e8b97a" />
  <rect x="560" y="450" width="40" height="160" fill="#d9a96a" />
</svg>
